<svg width="157" height="63" viewBox="0 0 157 63" fill="none" xmlns="http://www.w3.org/2000/svg">
<path d="M27.585 0.691956L0.807007 16.116V46.964L27.585 62.411L54.279 46.992V16.139L27.585 0.691956Z" fill="#E6002D"/>
<path d="M25.745 21.252V49.252L19.218 45.594V24.932L10.876 29.632V22.132L27.539 12.761L34.171 16.51L25.745 21.252Z" fill="white"/>
<path d="M39.029 43.788L32.46 47.488V24.952L39.029 21.252V43.788Z" fill="white"/>
<path d="M76.757 44.977V21.147H69V15.424H90.863V21.147H83.173V44.977H76.757Z" fill="#1E2F4F"/>
<path d="M100.364 15.424H94.127V21.147H100.364V15.424Z" fill="#1E2F4F"/>
<path d="M100.364 22.712H94.127V44.977H100.364V22.712Z" fill="#1E2F4F"/>
<path d="M106.78 44.977V15.424H116.817C118.94 15.3673 121.058 15.6371 123.099 16.224C124.656 16.6866 126.026 17.6321 127.011 18.924C127.959 20.2187 128.608 21.7074 128.911 23.283C129.289 25.4074 129.461 27.5634 129.425 29.721C129.458 31.9137 129.301 34.1053 128.956 36.271C128.676 37.9422 128.059 39.5393 127.145 40.966C126.213 42.3836 124.837 43.4526 123.233 44.006C121.166 44.6919 118.994 45.0098 116.817 44.945H106.78V44.977ZM116.817 39.344C118.874 39.344 120.371 38.83 121.266 37.802C122.048 36.975 122.54 35.41 122.741 33.175C122.786 32.281 122.83 31.007 122.83 29.419C122.842 28.1423 122.783 26.8659 122.651 25.596C122.551 24.7055 122.285 23.8415 121.869 23.048C121.499 22.3317 120.866 21.7867 120.103 21.528C119.031 21.2049 117.913 21.0613 116.794 21.103H113.172V39.366H116.816L116.817 39.344Z" fill="#1E2F4F"/>
<path d="M135.372 44.977V15.424H147.019C150.082 15.424 152.429 16.05 153.971 17.302C155.536 18.554 156.341 20.611 156.341 23.383C156.404 24.7506 156.144 26.1139 155.581 27.362C155.06 28.3152 154.316 29.1284 153.413 29.732C154.461 30.217 155.34 31.0031 155.939 31.99C156.64 33.3468 156.971 34.8644 156.9 36.39C156.9 39.274 156.028 41.465 154.329 42.873C152.63 44.281 150.238 44.973 147.198 44.973L135.372 44.977ZM146.907 39.411C147.856 39.4816 148.802 39.2297 149.59 38.696C149.905 38.343 150.141 37.9274 150.284 37.4765C150.426 37.0256 150.472 36.5497 150.417 36.08C150.417 33.889 149.277 32.839 146.93 32.839H141.811V39.411H146.907ZM146.772 27.384C148.829 27.384 149.835 26.333 149.835 24.184C149.835 22.035 148.807 20.984 146.728 20.984H141.788V27.384H146.772Z" fill="#1E2F4F"/>
</svg>
