<svg width="629" height="191" viewBox="0 0 629 191" fill="none" xmlns="http://www.w3.org/2000/svg">
<path d="M45.3771 132.833C28.532 105.528 27.4087 86.1116 41.346 57.0195" stroke="#2563EB" stroke-width="5"/>
<path d="M141 145C114.003 162.335 94.6105 163.809 65.2716 150.399" stroke="#2563EB" stroke-width="5"/>
<path d="M32.2142 36.9665L94.7499 73.9805L75.6414 95.2317L32.2142 36.9665Z" fill="#2563EB"/>
<path d="M17.3822 183.952L75.2098 93.735L100.969 116.897L17.3822 183.952Z" fill="#2563EB"/>
<path d="M162.824 153.533L100.288 116.519L119.397 95.2674L162.824 153.533Z" fill="#2563EB"/>
<path d="M152 57.0627C167.672 85.0576 167.972 104.504 152.813 132.979" stroke="#2563EB" stroke-width="5"/>
<rect x="74.9467" y="94.507" width="29" height="34" transform="rotate(-48.0389 74.9467 94.507)" fill="#2563EB"/>
<path d="M236.807 132L236.807 59.2727L245.614 59.2727L245.614 91.6591L284.392 91.6591L284.392 59.2727L293.199 59.2727L293.199 132L284.392 132L284.392 99.4716L245.614 99.4716L245.614 132L236.807 132ZM325.745 133.278C322.289 133.278 319.152 132.627 316.335 131.325C313.517 130 311.28 128.094 309.623 125.608C307.966 123.098 307.137 120.068 307.137 116.517C307.137 113.392 307.753 110.859 308.984 108.918C310.215 106.953 311.86 105.414 313.92 104.301C315.979 103.188 318.252 102.36 320.738 101.815C323.247 101.247 325.769 100.797 328.302 100.466C331.616 100.04 334.303 99.7202 336.363 99.5071C338.446 99.2704 339.961 98.8797 340.908 98.3352C341.879 97.7907 342.364 96.8437 342.364 95.4943L342.364 95.2102C342.364 91.7064 341.406 88.9839 339.488 87.0426C337.594 85.1013 334.718 84.1307 330.859 84.1307C326.858 84.1307 323.721 85.0066 321.448 86.7585C319.175 88.5104 317.577 90.3807 316.654 92.3693L308.7 89.5284C310.12 86.214 312.014 83.6335 314.381 81.7869C316.772 79.9167 319.377 78.6146 322.194 77.8807C325.035 77.1231 327.828 76.7443 330.575 76.7443C332.326 76.7443 334.339 76.9574 336.611 77.3835C338.908 77.786 341.121 78.6264 343.252 79.9048C345.406 81.1832 347.194 83.1127 348.614 85.6932C350.035 88.2737 350.745 91.7301 350.745 96.0625L350.745 132L342.364 132L342.364 124.614L341.938 124.614C341.37 125.797 340.423 127.064 339.097 128.413C337.772 129.763 336.008 130.911 333.806 131.858C331.604 132.805 328.917 133.278 325.745 133.278ZM327.023 125.75C330.338 125.75 333.131 125.099 335.404 123.797C337.701 122.495 339.429 120.814 340.589 118.754C341.772 116.695 342.364 114.528 342.364 112.256L342.364 104.585C342.009 105.011 341.228 105.402 340.021 105.757C338.837 106.089 337.464 106.384 335.901 106.645C334.362 106.882 332.859 107.095 331.391 107.284C329.947 107.45 328.775 107.592 327.876 107.71C325.698 107.994 323.662 108.456 321.768 109.095C319.897 109.711 318.382 110.646 317.222 111.901C316.086 113.132 315.518 114.812 315.518 116.943C315.518 119.855 316.595 122.057 318.749 123.548C320.927 125.016 323.685 125.75 327.023 125.75ZM388.201 133.136C383.087 133.136 378.684 131.929 374.99 129.514C371.297 127.099 368.456 123.773 366.468 119.536C364.479 115.298 363.485 110.456 363.485 105.011C363.485 99.4716 364.503 94.5829 366.539 90.3452C368.598 86.0838 371.463 82.7576 375.132 80.3665C378.826 77.9517 383.134 76.7443 388.059 76.7443C391.894 76.7443 395.35 77.4545 398.428 78.875C401.506 80.2955 404.027 82.2841 405.992 84.8409C407.957 87.3977 409.176 90.3807 409.649 93.7898L401.269 93.7898C400.63 91.304 399.209 89.1023 397.007 87.1847C394.829 85.2434 391.894 84.2727 388.201 84.2727C384.934 84.2727 382.069 85.125 379.607 86.8295C377.168 88.5104 375.263 90.8897 373.89 93.9673C372.54 97.0213 371.865 100.608 371.865 104.727C371.865 108.941 372.528 112.611 373.854 115.736C375.203 118.861 377.097 121.287 379.536 123.016C381.998 124.744 384.886 125.608 388.201 125.608C390.379 125.608 392.355 125.229 394.131 124.472C395.907 123.714 397.41 122.625 398.641 121.205C399.872 119.784 400.748 118.08 401.269 116.091L409.649 116.091C409.176 119.311 408.004 122.211 406.134 124.791C404.287 127.348 401.837 129.384 398.783 130.899C395.753 132.391 392.225 133.136 388.201 133.136ZM429.713 112.114L429.571 101.744L431.276 101.744L455.14 77.4545L465.509 77.4545L440.083 103.165L439.373 103.165L429.713 112.114ZM421.901 132L421.901 59.2727L430.282 59.2727L430.282 132L421.901 132ZM456.56 132L435.253 105.011L441.219 99.1875L467.213 132L456.56 132ZM496.919 133.136C491.663 133.136 487.129 131.976 483.318 129.656C479.53 127.312 476.606 124.045 474.547 119.855C472.511 115.641 471.493 110.741 471.493 105.153C471.493 99.5663 472.511 94.642 474.547 90.3807C476.606 86.0956 479.471 82.7576 483.14 80.3665C486.833 77.9517 491.142 76.7443 496.066 76.7443C498.907 76.7443 501.713 77.2178 504.483 78.1648C507.252 79.1117 509.774 80.6506 512.047 82.7812C514.319 84.8883 516.13 87.6818 517.48 91.1619C518.829 94.642 519.504 98.9271 519.504 104.017L519.504 107.568L477.458 107.568L477.458 100.324L510.981 100.324C510.981 97.2462 510.366 94.5 509.135 92.0852C507.927 89.6704 506.199 87.7647 503.95 86.3679C501.725 84.9711 499.097 84.2727 496.066 84.2727C492.728 84.2727 489.84 85.1013 487.402 86.7585C484.987 88.392 483.128 90.5227 481.826 93.1506C480.524 95.7784 479.873 98.5956 479.873 101.602L479.873 106.432C479.873 110.551 480.583 114.043 482.004 116.908C483.448 119.749 485.448 121.915 488.005 123.406C490.562 124.874 493.533 125.608 496.919 125.608C499.12 125.608 501.109 125.3 502.885 124.685C504.684 124.045 506.234 123.098 507.537 121.844C508.839 120.565 509.845 118.979 510.555 117.085L518.652 119.358C517.799 122.104 516.367 124.519 514.355 126.602C512.342 128.662 509.857 130.272 506.897 131.432C503.938 132.568 500.612 133.136 496.919 133.136ZM532.252 132L532.252 77.4545L540.349 77.4545L540.349 85.6932L540.917 85.6932C541.912 82.9943 543.711 80.8044 546.315 79.1236C548.919 77.4427 551.855 76.6023 555.122 76.6023C555.737 76.6023 556.507 76.6141 557.43 76.6378C558.353 76.6615 559.052 76.697 559.525 76.7443L559.525 85.267C559.241 85.196 558.59 85.0895 557.572 84.9474C556.578 84.7817 555.524 84.6989 554.412 84.6989C551.76 84.6989 549.393 85.2552 547.309 86.3679C545.25 87.4569 543.616 88.9721 542.409 90.9133C541.225 92.831 540.633 95.0208 540.633 97.483L540.633 132L532.252 132Z" fill="black"/>
<path d="M579.971 59.2727L595.986 85.9062L596.555 85.9062L612.641 59.2727L627.663 59.2727L605.255 95.6364L628.018 132L612.748 132L596.555 105.544L595.986 105.544L579.793 132L564.594 132L587.57 95.6364L564.879 59.2727L579.971 59.2727Z" fill="#2563EB"/>
<path d="M53.4208 43.1552C80.3433 25.7048 99.7295 24.1484 129.125 37.4327" stroke="#2563EB" stroke-width="5"/>
<path d="M177.184 6.23143L119.356 96.448L93.5971 73.2861L177.184 6.23143Z" fill="#2563EB"/>
</svg>
